<svg preserveAspectRatio="none" width="100%" height="100%" overflow="visible" style="display: block;" viewBox="0 0 18 18" fill="none" xmlns="http://www.w3.org/2000/svg">
<g id="Vector">
<path d="M4.29289 4.87868C4.68342 5.2692 5.31658 5.2692 5.70711 4.87868L7.44437 3.14142C7.66734 2.91845 7.84727 2.73884 8 2.59177V10.1716C8 10.7239 8.44772 11.1716 9 11.1716C9.55229 11.1716 10 10.7239 10 10.1716V2.59177C10.1527 2.73884 10.3327 2.91845 10.5556 3.14142L12.2929 4.87868C12.6834 5.2692 13.3166 5.2692 13.7071 4.87868C14.0976 4.48816 14.0976 3.85499 13.7071 3.46447L11.9426 1.69995C11.5699 1.32719 11.2483 1.00561 10.9618 0.76239C10.6594 0.505679 10.3309 0.278059 9.92705 0.146831C9.32452 -0.0489435 8.67548 -0.0489435 8.07295 0.14683C7.66907 0.278059 7.34059 0.505679 7.0382 0.762389C6.7517 1.00561 6.43015 1.32718 6.05741 1.69994L4.29289 3.46447C3.90237 3.85499 3.90237 4.48816 4.29289 4.87868Z" fill="var(--fill-0, #66C9BF)"/>
<path d="M15.9488 12.3173C15.9992 11.7005 16 10.9082 16 9.77157V9.17157C16 8.61929 16.4477 8.17157 17 8.17157C17.5523 8.17157 18 8.61929 18 9.17157V9.81438C18 10.8981 18 11.7723 17.9422 12.4802C17.8826 13.209 17.7568 13.8492 17.455 14.4415C16.9757 15.3823 16.2108 16.1472 15.27 16.6266C14.6777 16.9284 14.0375 17.0542 13.3086 17.1138C12.6007 17.1716 11.7266 17.1716 10.6428 17.1716H7.35722C6.27342 17.1716 5.39926 17.1716 4.69138 17.1138C3.96253 17.0542 3.32234 16.9284 2.73005 16.6266C1.78924 16.1472 1.02433 15.3823 0.544968 14.4415C0.243179 13.8492 0.117367 13.209 0.0578176 12.4802C-1.71214e-05 11.7723 -9.36584e-06 10.8982 2.46924e-07 9.81451V9.17157C2.46924e-07 8.61929 0.447716 8.17157 1 8.17157C1.55228 8.17157 2 8.61929 2 9.17157V9.77157C2 10.9082 2.00078 11.7005 2.05118 12.3173C2.10062 12.9225 2.19279 13.2702 2.32698 13.5335C2.6146 14.098 3.07354 14.557 3.63803 14.8446C3.90138 14.9788 4.24907 15.071 4.85424 15.1204C5.47108 15.1708 6.26339 15.1716 7.4 15.1716H10.6C11.7366 15.1716 12.5289 15.1708 13.1458 15.1204C13.7509 15.071 14.0986 14.9788 14.362 14.8446C14.9265 14.557 15.3854 14.098 15.673 13.5335C15.8072 13.2702 15.8994 12.9225 15.9488 12.3173Z" fill="var(--fill-0, #66C9BF)"/>
</g>
</svg>
