<svg preserveAspectRatio="none" width="100%" height="100%" overflow="visible" style="display: block;" viewBox="0 0 32 32" fill="none" xmlns="http://www.w3.org/2000/svg">
<g id="fi_1885282" clip-path="url(#clip0_0_14)">
<path id="Vector" d="M27.3137 20.6863C25.5711 18.9436 23.4968 17.6536 21.2337 16.8726C23.6576 15.2032 25.25 12.4093 25.25 9.25C25.25 4.14956 21.1004 0 16 0C10.8996 0 6.75 4.14956 6.75 9.25C6.75 12.4093 8.34244 15.2032 10.7663 16.8727C8.50319 17.6536 6.42894 18.9436 4.68625 20.6863C1.66431 23.7083 0 27.7263 0 32H2.5C2.5 27.1609 5.05988 22.909 8.896 20.5254C9.45237 21.8628 10.4967 23.1934 12.022 24.502C12.4883 24.9021 12.9536 25.2593 13.3834 25.5673C12.6849 26.2488 12.25 27.1994 12.25 28.25C12.25 30.3177 13.9323 32 16 32C18.0677 32 19.75 30.3177 19.75 28.25C19.75 27.1994 19.3151 26.2488 18.6166 25.5674C19.0464 25.2594 19.5116 24.9021 19.9779 24.5021C21.5033 23.1935 22.5476 21.8629 23.1039 20.5254C26.9401 22.909 29.5 27.1609 29.5 32H32C32 27.7263 30.3357 23.7083 27.3137 20.6863ZM9.25 9.25C9.25 5.52806 12.2781 2.5 16 2.5C19.7219 2.5 22.75 5.52806 22.75 9.25C22.75 12.9719 19.7219 16 16 16C12.2781 16 9.25 12.9719 9.25 9.25ZM16 29.5C15.3108 29.5 14.75 28.9392 14.75 28.25C14.75 27.5608 15.3108 27 16 27C16.6892 27 17.25 27.5608 17.25 28.25C17.25 28.9392 16.6892 29.5 16 29.5ZM16.0044 24.3079C15.442 23.9641 14.5456 23.373 13.6499 22.6046C12.6963 21.7866 11.6032 20.6428 11.1439 19.4039C12.6516 18.8208 14.2889 18.5 16 18.5C17.7116 18.5 19.3493 18.8209 20.8574 19.4045C20.0957 21.4633 17.5403 23.3767 16.0044 24.3079Z" fill="var(--fill-0, #0CA99A)"/>
</g>
<defs>
<clipPath id="clip0_0_14">
<rect width="32" height="32" fill="white"/>
</clipPath>
</defs>
</svg>
