<svg preserveAspectRatio="none" width="100%" height="100%" overflow="visible" style="display: block;" viewBox="0 0 29 29" fill="none" xmlns="http://www.w3.org/2000/svg">
<g id="Group">
<path id="Vector" fill-rule="evenodd" clip-rule="evenodd" d="M9.43097 8.18272C10.068 8.04277 10.8177 7.9998 11.6667 7.9998H17C17.8489 7.9998 18.5987 8.04277 19.2357 8.18272C19.884 8.32513 20.4777 8.58129 20.9481 9.05169C21.4185 9.52209 21.6747 10.1158 21.8171 10.7641C21.9571 11.4011 22 12.1508 22 12.9998V27.6665C22 28.2188 21.5523 28.6665 21 28.6665H7.66667C7.11439 28.6665 6.66667 28.2188 6.66667 27.6665V12.9998C6.66667 12.1508 6.70964 11.4011 6.84959 10.7641C6.99201 10.1158 7.24816 9.52209 7.71856 9.05169C8.18896 8.58129 8.78265 8.32513 9.43097 8.18272ZM8.803 11.1932C8.71003 11.6165 8.66667 12.1941 8.66667 12.9998V26.6665H20V12.9998C20 12.1941 19.9567 11.6165 19.8636 11.1932C19.7732 10.7813 19.6499 10.5818 19.5339 10.4659C19.418 10.35 19.2185 10.2266 18.8065 10.1361C18.3833 10.0432 17.8057 9.9998 17 9.9998H11.6667C10.861 9.9998 10.2834 10.0432 9.86011 10.1361C9.44819 10.2266 9.24871 10.35 9.13277 10.4659C9.01684 10.5818 8.89349 10.7813 8.803 11.1932Z" fill="var(--fill-0, #0CA99A)"/>
<path id="Vector_2" fill-rule="evenodd" clip-rule="evenodd" d="M12 14.3332C12 13.7809 12.4477 13.3332 13 13.3332H15.6667C16.2189 13.3332 16.6667 13.7809 16.6667 14.3332C16.6667 14.8854 16.2189 15.3332 15.6667 15.3332H13C12.4477 15.3332 12 14.8854 12 14.3332ZM12 18.3332C12 17.7809 12.4477 17.3332 13 17.3332H15.6667C16.2189 17.3332 16.6667 17.7809 16.6667 18.3332C16.6667 18.8854 16.2189 19.3332 15.6667 19.3332H13C12.4477 19.3332 12 18.8854 12 18.3332ZM12 22.3332C12 21.7809 12.4477 21.3332 13 21.3332H15.6667C16.2189 21.3332 16.6667 21.7809 16.6667 22.3332C16.6667 22.8854 16.2189 23.3332 15.6667 23.3332H13C12.4477 23.3332 12 22.8854 12 22.3332Z" fill="var(--fill-0, #0CA99A)"/>
<path id="Vector_3" fill-rule="evenodd" clip-rule="evenodd" d="M16.8651 0.059253C17.2415 0.145386 17.644 0.32184 18.0511 0.529653L23.884 3.50789C24.5636 3.85489 25.1411 4.14968 25.5935 4.44369C26.076 4.75717 26.4865 5.11244 26.7905 5.61491C27.0939 6.11612 27.2201 6.6462 27.2784 7.22189C27.3333 7.76425 27.3333 8.42128 27.3333 9.1988V27.6665C27.3333 28.2188 26.8856 28.6665 26.3333 28.6665C25.7811 28.6665 25.3333 28.2188 25.3333 27.6665V9.24732C25.3333 8.40835 25.3321 7.85312 25.2887 7.42336C25.2473 7.01567 25.1745 6.80729 25.0796 6.65045C24.9853 6.49487 24.8381 6.338 24.5039 6.12076C24.1493 5.89039 23.666 5.64224 22.9304 5.26663L17.1416 2.31091C16.9553 2.21583 16.8055 2.14712 16.6861 2.0986C16.674 2.23569 16.6667 2.41243 16.6667 2.63811V8.60447C16.6667 9.15675 16.2189 9.60447 15.6667 9.60447C15.1144 9.60447 14.6667 9.15675 14.6667 8.60447V2.63811C14.6667 2.18565 14.69 1.7512 14.7768 1.37967C14.8613 1.01764 15.0459 0.54388 15.5079 0.24488C15.9784 -0.0596403 16.4919 -0.026107 16.8651 0.059253ZM16.3681 1.99955C16.3652 1.99945 16.3636 1.99923 16.3636 1.99923L16.3681 1.99955Z" fill="var(--fill-0, #0CA99A)"/>
<path id="Vector_4" fill-rule="evenodd" clip-rule="evenodd" d="M3.34443 15.3442C3.33781 15.4212 3.33333 15.5254 3.33333 15.6665V27.6665C3.33333 28.2188 2.88561 28.6665 2.33333 28.6665C1.78105 28.6665 1.33333 28.2188 1.33333 27.6665V15.6665C1.33333 15.369 1.34753 15.0618 1.40983 14.7782C1.47461 14.4833 1.60427 14.154 1.87923 13.879C2.15419 13.6041 2.48348 13.4744 2.7784 13.4096C3.06197 13.3473 3.36925 13.3332 3.66667 13.3332H7.66667C8.21895 13.3332 8.66667 13.7809 8.66667 14.3332C8.66667 14.8854 8.21895 15.3332 7.66667 15.3332H3.66667C3.52571 15.3332 3.42135 15.3376 3.34443 15.3442Z" fill="var(--fill-0, #0CA99A)"/>
<path id="Vector_5" fill-rule="evenodd" clip-rule="evenodd" d="M0 27.6665C0 27.1142 0.44772 26.6665 1 26.6665H27.6667C28.2189 26.6665 28.6667 27.1142 28.6667 27.6665C28.6667 28.2188 28.2189 28.6665 27.6667 28.6665H1C0.44772 28.6665 0 28.2188 0 27.6665Z" fill="var(--fill-0, #0CA99A)"/>
</g>
</svg>
