<svg preserveAspectRatio="none" width="100%" height="100%" overflow="visible" style="display: block;" viewBox="0 0 18 18" fill="none" xmlns="http://www.w3.org/2000/svg">
<g id="fi_11326152">
<path id="Vector" d="M16.1475 15.3525L14.8815 14.0865C15.1372 13.7332 15.333 13.3365 15.4462 12.9022C15.687 11.9812 15.555 11.022 15.0743 10.2C14.2755 8.83575 12.7072 8.217 11.2395 8.5365C12.045 7.81875 12.5618 6.78675 12.5618 5.62425C12.5618 3.453 10.7955 1.68675 8.62425 1.68675C6.453 1.68675 4.68675 3.453 4.68675 5.62425C4.68675 6.8265 5.24025 7.8915 6.09225 8.6145C5.07825 8.86575 4.14675 9.38175 3.3885 10.1393C2.2905 11.238 1.686 12.6975 1.686 14.2493C1.686 15.387 2.61075 16.3118 3.7485 16.3118H8.9985C9.309 16.3118 9.561 16.0598 9.561 15.7493C9.561 15.4388 9.309 15.1868 8.9985 15.1868H3.7485C3.23175 15.1868 2.811 14.766 2.811 14.2493C2.811 12.9975 3.2985 11.82 4.1835 10.9342C5.06925 10.0493 6.246 9.56175 7.4985 9.56175H9.42075C9.0135 9.9915 8.70525 10.5082 8.5515 11.097C8.31075 12.018 8.44275 12.9772 8.9235 13.7992C9.40425 14.6205 10.176 15.2055 11.0955 15.4462C11.3962 15.5242 11.7015 15.5632 12.0037 15.5632C12.6285 15.5632 13.2443 15.3975 13.7977 15.0743C13.8982 15.0158 13.983 14.94 14.076 14.8725L15.3502 16.1467C15.4597 16.2562 15.6038 16.3118 15.7478 16.3118C15.8918 16.3118 16.0358 16.257 16.1453 16.1467C16.365 15.927 16.365 15.5707 16.1453 15.351L16.1475 15.3525ZM5.8125 5.625C5.8125 4.074 7.07475 2.8125 8.625 2.8125C10.1752 2.8125 11.4375 4.074 11.4375 5.625C11.4375 7.176 10.1752 8.4375 8.625 8.4375C7.07475 8.4375 5.8125 7.176 5.8125 5.625ZM14.3588 12.6172C14.1938 13.2472 13.7932 13.7745 13.2315 14.103C12.6697 14.4315 12.0142 14.5222 11.3827 14.358C10.7527 14.193 10.2255 13.7925 9.897 13.2308C9.5685 12.669 9.477 12.012 9.642 11.382C9.807 10.752 10.2075 10.2247 10.7692 9.89625C11.1555 9.6705 11.5785 9.56325 11.997 9.56325C12.8347 9.56325 13.6515 9.9945 14.1045 10.7685C14.433 11.3302 14.5238 11.9872 14.3588 12.6172Z" fill="var(--fill-0, white)"/>
</g>
</svg>
