<svg preserveAspectRatio="none" width="100%" height="100%" overflow="visible" style="display: block;" viewBox="0 0 150 150" fill="none" xmlns="http://www.w3.org/2000/svg">
<g id="fi_149071" clip-path="url(#clip0_0_33)">
<path id="Vector" d="M52.6778 117.6L30.2995 129.807C28.9863 130.523 27.8061 131.403 26.708 132.362C39.7552 143.363 56.5976 150 74.9995 150C93.2656 150 110 143.462 123.011 132.611C121.811 131.598 120.509 130.687 119.066 129.968L95.1024 117.988C92.0061 116.44 90.0505 113.275 90.0505 109.814V100.412C90.724 99.6453 91.4939 98.6604 92.3174 97.4972C95.5835 92.884 98.0542 87.8094 99.7665 82.4859C102.84 81.5377 105.104 78.6991 105.104 75.3255V65.2896C105.104 63.0821 104.122 61.1094 102.597 59.7283V45.2208C102.597 45.2208 105.577 22.6443 75.0023 22.6443C44.4278 22.6443 47.408 45.2208 47.408 45.2208V59.7283C45.8797 61.1094 44.9005 63.0821 44.9005 65.2896V75.3255C44.9005 77.9689 46.2901 80.2953 48.3703 81.6396C50.8778 92.5557 57.4439 100.412 57.4439 100.412V109.582C57.441 112.922 55.6127 115.998 52.6778 117.6Z" fill="var(--fill-0, #E7ECED)"/>
<g id="Group">
<path id="Vector_2" d="M76.2819 0.0111684C34.8678 -0.696379 0.718723 32.3036 0.0111758 73.7178C-0.390711 97.1998 10.0753 118.305 26.7395 132.339C27.8291 131.389 28.998 130.517 30.297 129.809L52.6753 117.603C55.6102 116.001 57.4385 112.924 57.4385 109.579V100.409C57.4385 100.409 50.8697 92.5527 48.3649 81.6366C46.2876 80.2923 44.8951 77.9687 44.8951 75.3225V65.2866C44.8951 63.0791 45.8772 61.1065 47.4027 59.7253V45.2178C47.4027 45.2178 44.4225 22.6414 74.997 22.6414C105.572 22.6414 102.591 45.2178 102.591 45.2178V59.7253C104.12 61.1065 105.099 63.0791 105.099 65.2866V75.3225C105.099 78.6961 102.835 81.5347 99.7612 82.4829C98.0489 87.8064 95.5782 92.881 92.3121 97.4942C91.4885 98.6574 90.7187 99.6423 90.0451 100.409V109.811C90.0451 113.272 92.0008 116.439 95.097 117.985L119.06 129.965C120.498 130.684 121.797 131.592 122.994 132.603C139.155 119.125 149.595 98.9744 149.983 76.2819C150.696 34.8678 117.699 0.718716 76.2819 0.0111684Z" fill="var(--fill-0, #92A8BC)"/>
</g>
</g>
<defs>
<clipPath id="clip0_0_33">
<rect width="150" height="150" fill="white"/>
</clipPath>
</defs>
</svg>
