<svg preserveAspectRatio="none" width="100%" height="100%" overflow="visible" style="display: block;" viewBox="0 0 32 32" fill="none" xmlns="http://www.w3.org/2000/svg">
<g id="26">
<path id="Vector" d="M16 0C12.8355 0 9.74207 0.938384 7.11088 2.69649C4.4797 4.45459 2.42894 6.95345 1.21793 9.87707C0.00693258 12.8007 -0.309921 16.0178 0.307443 19.1214C0.924806 22.2251 2.44866 25.0761 4.6863 27.3137C6.92394 29.5514 9.77487 31.0752 12.8786 31.6926C15.9823 32.3099 19.1993 31.9931 22.1229 30.7821C25.0466 29.5711 27.5454 27.5203 29.3035 24.8891C31.0616 22.2579 32 19.1645 32 16C32 11.7565 30.3143 7.68687 27.3137 4.68629C24.3131 1.68571 20.2435 0 16 0ZM16 29.3333C13.3629 29.3333 10.7851 28.5513 8.5924 27.0863C6.39975 25.6212 4.69078 23.5388 3.68161 21.1024C2.67245 18.6661 2.4084 15.9852 2.92287 13.3988C3.43734 10.8124 4.70722 8.43661 6.57192 6.57191C8.43662 4.70721 10.8124 3.43733 13.3988 2.92286C15.9852 2.40839 18.6661 2.67244 21.1025 3.68161C23.5388 4.69078 25.6212 6.39974 27.0863 8.5924C28.5514 10.7851 29.3333 13.3629 29.3333 16C29.3333 19.5362 27.9286 22.9276 25.4281 25.4281C22.9276 27.9286 19.5362 29.3333 16 29.3333Z" fill="var(--fill-0, #0CA99A)"/>
<path id="Vector_2" d="M19.4667 20.8871C18.795 21.1846 18.068 21.3368 17.3333 21.3337C16.5344 21.3332 15.7458 21.1532 15.0258 20.8071C14.3057 20.4609 13.6727 19.9574 13.1733 19.3337H17.3333V16.6671H12.0467C11.9845 16.2248 11.9845 15.776 12.0467 15.3337H17.3333V12.6671H13.1733C13.6727 12.0434 14.3057 11.5399 15.0258 11.1937C15.7458 10.8475 16.5344 10.6676 17.3333 10.6671C18.068 10.664 18.795 10.8162 19.4667 11.1137L20.6867 11.6471L21.7533 9.20039L20.5333 8.66706C18.6132 7.83241 16.4423 7.78379 14.4867 8.53163C12.5311 9.27947 10.9466 10.7642 10.0733 12.6671H8V15.3337H9.36667C9.36667 15.5537 9.33333 15.7737 9.33333 16.0004C9.33333 16.2271 9.33333 16.4471 9.36667 16.6671H8V19.3337H10.0733C10.9466 21.2366 12.5311 22.7213 14.4867 23.4691C16.4423 24.217 18.6132 24.1684 20.5333 23.3337L21.7533 22.8004L20.6667 20.3537L19.4667 20.8871Z" fill="var(--fill-0, #0CA99A)"/>
</g>
</svg>
