<svg preserveAspectRatio="none" width="100%" height="100%" overflow="visible" style="display: block;" viewBox="0 0 18 18" fill="none" xmlns="http://www.w3.org/2000/svg">
<g id="fi_2040504" clip-path="url(#clip0_0_187)">
<path id="Vector" d="M17.2095 10.4307L16.4606 9.81425C15.9477 9.39199 15.9486 8.60716 16.4607 8.18575L17.2095 7.56932C17.7423 7.1306 17.8786 6.37833 17.5335 5.7805L16.0549 3.2195C15.7098 2.62171 14.99 2.36366 14.3438 2.60575L13.4355 2.94602C12.8134 3.17904 12.1341 2.78603 12.0251 2.13177L11.8657 1.17503C11.7522 0.494191 11.1689 0 10.4786 0H7.52143C6.83114 0 6.24776 0.494191 6.13431 1.17506L5.97484 2.13177C5.86561 2.78719 5.18548 3.17865 4.56451 2.94606L3.65625 2.60575C3.00997 2.36366 2.29025 2.62174 1.94505 3.2195L0.466488 5.78046C0.121359 6.37822 0.257625 7.13053 0.790559 7.56928L1.53935 8.18571C2.05235 8.60801 2.05133 9.39277 1.53935 9.81422L0.790523 10.4306C0.257625 10.8694 0.121324 11.6217 0.466453 12.2195L1.94505 14.7805C2.29022 15.3782 3.0098 15.6363 3.65625 15.3942L4.56448 15.0539C5.18671 14.8208 5.86579 15.2141 5.9748 15.8682L6.13427 16.8249C6.24776 17.5058 6.83114 18 7.5214 18H10.4786C11.1688 18 11.7522 17.5058 11.8657 16.8249L12.0251 15.8683C12.1343 15.213 12.8144 14.8213 13.4355 15.054L14.3438 15.3943C14.9902 15.6364 15.7098 15.3783 16.0549 14.7805L17.5336 12.2195C17.8786 11.6217 17.7423 10.8694 17.2095 10.4307ZM14.8371 14.0774L13.9288 13.7371C12.4769 13.1932 10.8924 14.1108 10.638 15.637L10.4786 16.5938H7.52143L7.36196 15.637C7.10712 14.1079 5.52027 13.1942 4.07116 13.7371L3.1629 14.0774L1.68434 11.5164L2.43313 10.8999C3.63016 9.91452 3.62767 8.08344 2.43313 7.10005L1.68434 6.48362L3.16294 3.92263L4.07116 4.26291C5.52312 4.80677 7.10761 3.8892 7.36196 2.36296L7.5214 1.40625H10.4786L10.638 2.36296C10.8929 3.89232 12.4798 4.80565 13.9288 4.26291L14.8371 3.92263L16.316 6.48327C16.316 6.48327 16.3159 6.48337 16.3156 6.48359L15.5668 7.10002C14.3698 8.08537 14.3722 9.91649 15.5668 10.8999L16.3156 11.5163L14.8371 14.0774ZM9 5.53124C7.08732 5.53124 5.53124 7.08732 5.53124 9C5.53124 10.9127 7.08732 12.4688 9 12.4688C10.9127 12.4688 12.4688 10.9127 12.4688 9C12.4688 7.08732 10.9127 5.53124 9 5.53124ZM9 11.0625C7.86273 11.0625 6.93749 10.1373 6.93749 9C6.93749 7.86273 7.86273 6.93749 9 6.93749C10.1373 6.93749 11.0625 7.86273 11.0625 9C11.0625 10.1373 10.1373 11.0625 9 11.0625Z" fill="var(--fill-0, #1A1A1A)"/>
</g>
<defs>
<clipPath id="clip0_0_187">
<rect width="18" height="18" fill="white"/>
</clipPath>
</defs>
</svg>
