<svg preserveAspectRatio="none" width="100%" height="100%" overflow="visible" style="display: block;" viewBox="0 0 18 18" fill="none" xmlns="http://www.w3.org/2000/svg">
<g id="fi_3793594">
<path id="Vector" d="M6 4.5C6.82843 4.5 7.5 3.82843 7.5 3C7.5 2.17157 6.82843 1.5 6 1.5C5.17157 1.5 4.5 2.17157 4.5 3C4.5 3.82843 5.17157 4.5 6 4.5Z" fill="var(--fill-0, #999999)"/>
<path id="Vector_2" d="M6 10.5C6.82843 10.5 7.5 9.82843 7.5 9C7.5 8.17157 6.82843 7.5 6 7.5C5.17157 7.5 4.5 8.17157 4.5 9C4.5 9.82843 5.17157 10.5 6 10.5Z" fill="var(--fill-0, #999999)"/>
<path id="Vector_3" d="M6 16.5C6.82843 16.5 7.5 15.8284 7.5 15C7.5 14.1716 6.82843 13.5 6 13.5C5.17157 13.5 4.5 14.1716 4.5 15C4.5 15.8284 5.17157 16.5 6 16.5Z" fill="var(--fill-0, #999999)"/>
<path id="Vector_4" d="M12 4.5C12.8284 4.5 13.5 3.82843 13.5 3C13.5 2.17157 12.8284 1.5 12 1.5C11.1716 1.5 10.5 2.17157 10.5 3C10.5 3.82843 11.1716 4.5 12 4.5Z" fill="var(--fill-0, #999999)"/>
<path id="Vector_5" d="M12 10.5C12.8284 10.5 13.5 9.82843 13.5 9C13.5 8.17157 12.8284 7.5 12 7.5C11.1716 7.5 10.5 8.17157 10.5 9C10.5 9.82843 11.1716 10.5 12 10.5Z" fill="var(--fill-0, #999999)"/>
<path id="Vector_6" d="M12 16.5C12.8284 16.5 13.5 15.8284 13.5 15C13.5 14.1716 12.8284 13.5 12 13.5C11.1716 13.5 10.5 14.1716 10.5 15C10.5 15.8284 11.1716 16.5 12 16.5Z" fill="var(--fill-0, #999999)"/>
</g>
</svg>
