<svg preserveAspectRatio="none" width="100%" height="100%" overflow="visible" style="display: block;" viewBox="0 0 18 18" fill="none" xmlns="http://www.w3.org/2000/svg">
<g id="fi_5770911">
<g id="Bell">
<path id="Vector" d="M15 9.87825V6.75C15 5.1587 14.3679 3.63258 13.2426 2.50736C12.1174 1.38214 10.5913 0.75 9 0.75C7.4087 0.75 5.88258 1.38214 4.75736 2.50736C3.63214 3.63258 3 5.1587 3 6.75V9.87675C2.68619 9.9848 2.4019 10.1646 2.16975 10.4018C1.95586 10.609 1.78622 10.8575 1.67111 11.1322C1.55599 11.407 1.49778 11.7022 1.5 12C1.5 12.5967 1.73705 13.169 2.15901 13.591C2.58097 14.0129 3.15326 14.25 3.75 14.25H5.325C5.49714 15.0977 5.95705 15.8599 6.62681 16.4073C7.29657 16.9547 8.13498 17.2538 9 17.2538C9.86502 17.2538 10.7034 16.9547 11.3732 16.4073C12.043 15.8599 12.5029 15.0977 12.675 14.25H14.25C14.8458 14.247 15.4164 14.009 15.8377 13.5877C16.259 13.1664 16.497 12.5958 16.5 12C16.4994 11.5348 16.355 11.0812 16.0864 10.7013C15.8179 10.3214 15.4384 10.0339 15 9.87825ZM9 15.75C8.53479 15.7494 8.08115 15.605 7.70129 15.3364C7.32143 15.0679 7.03394 14.6884 6.87825 14.25H11.1218C10.9661 14.6884 10.6786 15.0679 10.2987 15.3364C9.91885 15.605 9.46521 15.7494 9 15.75ZM14.7698 12.5347C14.702 12.6037 14.6211 12.6583 14.5318 12.6953C14.4425 12.7323 14.3467 12.7509 14.25 12.75H3.75C3.55109 12.75 3.36032 12.671 3.21967 12.5303C3.07902 12.3897 3 12.1989 3 12C2.9998 11.8999 3.02013 11.8007 3.05973 11.7088C3.09934 11.6168 3.15737 11.5339 3.23025 11.4652C3.29798 11.3963 3.37891 11.3417 3.46821 11.3047C3.55751 11.2677 3.65335 11.2491 3.75 11.25C3.94891 11.25 4.13968 11.171 4.28033 11.0303C4.42098 10.8897 4.5 10.6989 4.5 10.5V6.75C4.5 6.15905 4.6164 5.57389 4.84254 5.02792C5.06869 4.48196 5.40016 3.98588 5.81802 3.56802C6.23588 3.15016 6.73196 2.81869 7.27792 2.59254C7.82389 2.3664 8.40905 2.25 9 2.25C9.59095 2.25 10.1761 2.3664 10.7221 2.59254C11.268 2.81869 11.7641 3.15016 12.182 3.56802C12.5998 3.98588 12.9313 4.48196 13.1575 5.02792C13.3836 5.57389 13.5 6.15905 13.5 6.75V10.5C13.5 10.6989 13.579 10.8897 13.7197 11.0303C13.8603 11.171 14.0511 11.25 14.25 11.25C14.4489 11.25 14.6397 11.329 14.7803 11.4697C14.921 11.6103 15 11.8011 15 12C15.0002 12.1001 14.9799 12.1993 14.9403 12.2912C14.9007 12.3832 14.8426 12.4661 14.7698 12.5347Z" fill="var(--fill-0, #1A1A1A)"/>
</g>
<circle id="Ellipse 1" cx="13.75" cy="3.25" r="2.5" fill="var(--fill-0, #EB3131)"/>
</g>
</svg>
