<svg preserveAspectRatio="none" width="100%" height="100%" overflow="visible" style="display: block;" viewBox="0 0 17 16" fill="none" xmlns="http://www.w3.org/2000/svg">
<g id="Group">
<path id="Vector" d="M4.5 5.0625C4.5 4.75184 4.75184 4.5 5.0625 4.5H8.0625C8.37315 4.5 8.625 4.75184 8.625 5.0625C8.625 5.37316 8.37315 5.625 8.0625 5.625H5.0625C4.75184 5.625 4.5 5.37316 4.5 5.0625Z" fill="var(--fill-0, white)"/>
<path id="Vector_2" d="M4.5 8.0625C4.5 7.75185 4.75184 7.5 5.0625 7.5H11.0625C11.3732 7.5 11.625 7.75185 11.625 8.0625C11.625 8.37315 11.3732 8.625 11.0625 8.625H5.0625C4.75184 8.625 4.5 8.37315 4.5 8.0625Z" fill="var(--fill-0, white)"/>
<path id="Vector_3" fill-rule="evenodd" clip-rule="evenodd" d="M6.53733 0H9.5877C10.6165 0 11.423 -7.46548e-06 12.0713 0.0529575C12.7314 0.10689 13.2767 0.218535 13.7703 0.470033C14.5818 0.883485 15.2415 1.54322 15.655 2.35466C15.9065 2.84827 16.0181 3.39359 16.0721 4.05371C16.125 4.70196 16.125 5.50853 16.125 6.53732V7.45065V7.56083C16.1252 8.72228 16.1253 9.4308 15.9508 10.0259C15.5375 11.4353 14.4353 12.5375 13.0259 12.9508C12.4308 13.1253 11.7223 13.1251 10.5608 13.125C10.5245 13.125 10.4879 13.125 10.4507 13.125H10.0391L9.99383 13.1251C9.34343 13.1292 8.7099 13.3323 8.17823 13.7069L8.14133 13.7332L6.18331 15.1318C5.05493 15.9377 3.57216 14.7738 4.08716 13.4863C4.15637 13.3133 4.02893 13.125 3.84256 13.125H3.39125C1.51831 13.125 0 11.6067 0 9.73373V6.53733C0 5.50854 -7.46548e-06 4.70197 0.0529575 4.05371C0.10689 3.39359 0.218535 2.84827 0.470033 2.35466C0.883485 1.54322 1.54322 0.883485 2.35466 0.470033C2.84827 0.218535 3.39359 0.10689 4.05371 0.0529575C4.70197 -7.46548e-06 5.50854 0 6.53733 0ZM4.14531 1.17422C3.55478 1.22247 3.17398 1.31519 2.86541 1.47241C2.26564 1.77801 1.77801 2.26564 1.47242 2.8654C1.31519 3.17398 1.22247 3.55478 1.17422 4.14531C1.12544 4.74242 1.125 5.50312 1.125 6.5625V9.73373C1.125 10.9854 2.13963 12 3.39125 12H3.84256C4.82483 12 5.4965 12.9921 5.1317 13.9041C5.03398 14.1484 5.31532 14.3692 5.52941 14.2163L7.53015 12.7873C8.24948 12.2804 9.10665 12.0057 9.98663 12.0001L10.0391 12H10.4507C11.7571 12 12.2897 11.9943 12.7094 11.8712C13.7511 11.5658 14.5658 10.7511 14.8712 9.70935C14.9943 9.28972 15 8.75708 15 7.45065V6.5625C15 5.50312 14.9996 4.74242 14.9508 4.14531C14.9025 3.55478 14.8098 3.17398 14.6526 2.8654C14.347 2.26564 13.8593 1.77801 13.2596 1.47241C12.951 1.31519 12.5702 1.22247 11.9797 1.17422C11.3826 1.12543 10.6219 1.125 9.5625 1.125H6.5625C5.50312 1.125 4.74242 1.12543 4.14531 1.17422Z" fill="var(--fill-0, white)"/>
</g>
</svg>
