<svg preserveAspectRatio="none" width="100%" height="100%" overflow="visible" style="display: block;" viewBox="0 0 16 16" fill="none" xmlns="http://www.w3.org/2000/svg">
<g id="Group">
<path id="Vector" d="M9.5625 1.6875C9.87315 1.6875 10.125 1.43566 10.125 1.125C10.125 0.814342 9.87315 0.5625 9.5625 0.5625H7.2786C5.90115 0.562492 4.82146 0.562492 3.96486 0.655297C3.0907 0.750007 2.38242 0.94674 1.77768 1.38611C1.41157 1.65211 1.08961 1.97407 0.823613 2.34017C0.38424 2.94492 0.187508 3.6532 0.0927975 4.52736C-7.45431e-06 5.38396 -7.41164e-06 6.46365 8.83555e-08 7.8411V7.9089C-7.41164e-06 9.28635 -7.45431e-06 10.366 0.0927975 11.2226C0.187508 12.0968 0.38424 12.8051 0.823613 13.4099C1.08961 13.7759 1.41157 14.0979 1.77767 14.3638C2.38242 14.8033 3.0907 15 3.96486 15.0947C4.82144 15.1875 5.90115 15.1875 7.27853 15.1875H7.34647C8.72385 15.1875 9.80355 15.1875 10.6601 15.0947C11.5343 15 12.2426 14.8033 12.8474 14.3638C13.2134 14.0979 13.5354 13.7759 13.8014 13.4099C14.2408 12.8051 14.4375 12.0968 14.5322 11.2226C14.625 10.366 14.625 9.28635 14.625 7.90897V5.625C14.625 5.31434 14.3731 5.0625 14.0625 5.0625C13.7518 5.0625 13.5 5.31434 13.5 5.625V7.875C13.5 9.2937 13.4993 10.3125 13.4138 11.1015C13.3294 11.8799 13.168 12.3676 12.8912 12.7486C12.6946 13.0192 12.4567 13.2571 12.1861 13.4537C11.8051 13.7305 11.3174 13.8919 10.539 13.9762C9.75 14.0617 8.7312 14.0625 7.3125 14.0625C5.8938 14.0625 4.87499 14.0617 4.08603 13.9762C3.3076 13.8919 2.81994 13.7305 2.43893 13.4537C2.16833 13.2571 1.93037 13.0192 1.73376 12.7486C1.45694 12.3676 1.29559 11.8799 1.21125 11.1015C1.12577 10.3125 1.125 9.2937 1.125 7.875C1.125 6.4563 1.12577 5.43749 1.21125 4.64854C1.29559 3.8701 1.45694 3.38244 1.73376 3.00143C1.93037 2.73083 2.16833 2.49286 2.43893 2.29626C2.81994 2.01944 3.3076 1.85809 4.08604 1.77375C4.87499 1.68827 5.8938 1.6875 7.3125 1.6875H9.5625Z" fill="var(--fill-0, #66C9BF)"/>
<path id="Vector_2" d="M3.05749 9.7701C2.92067 10.049 3.03587 10.3861 3.31478 10.5229C3.59369 10.6597 3.9307 10.5445 4.06751 10.2655L5.16277 8.0328C5.50224 7.3407 6.50003 7.37453 6.79185 8.088C7.45125 9.69975 9.7053 9.7761 10.4722 8.21265L11.5676 5.97987C11.7044 5.70095 11.5891 5.36394 11.3102 5.22713C11.0313 5.09032 10.6943 5.20551 10.5574 5.48442L9.46222 7.7172C9.12277 8.4093 8.12498 8.37547 7.83315 7.662C7.17375 6.05024 4.91966 5.97388 4.15274 7.53735L3.05749 9.7701Z" fill="var(--fill-0, #66C9BF)"/>
<path id="Vector_3" fill-rule="evenodd" clip-rule="evenodd" d="M11.4375 1.875C11.4375 2.91053 12.277 3.75 13.3125 3.75C14.348 3.75 15.1875 2.91053 15.1875 1.875C15.1875 0.839467 14.348 -2.98023e-08 13.3125 -2.98023e-08C12.277 -2.98023e-08 11.4375 0.839467 11.4375 1.875ZM12.5625 1.875C12.5625 2.28921 12.8983 2.625 13.3125 2.625C13.7267 2.625 14.0625 2.28921 14.0625 1.875C14.0625 1.46079 13.7267 1.125 13.3125 1.125C12.8983 1.125 12.5625 1.46079 12.5625 1.875Z" fill="var(--fill-0, #66C9BF)"/>
</g>
</svg>
