<svg preserveAspectRatio="none" width="100%" height="100%" overflow="visible" style="display: block;" viewBox="0 0 24 24" fill="none" xmlns="http://www.w3.org/2000/svg">
<g id="fi_299490" clip-path="url(#clip0_0_172)">
<path id="Vector" d="M22.6131 6.82528C22.6129 6.23433 22.2976 5.68833 21.7858 5.39292L15.5537 1.79625L12.8251 0.221484C12.3133 -0.0739219 11.6828 -0.0738281 11.171 0.221766L8.44631 1.79545L2.21203 5.3962C1.7003 5.69175 1.38516 6.23784 1.3852 6.8288L1.38689 17.1747C1.38703 17.7657 1.70231 18.3117 2.21419 18.6071L8.44627 22.2037L11.1749 23.7786C11.6867 24.074 12.3172 24.0738 12.8289 23.7783L15.5537 22.2045L21.7879 18.6038C22.2997 18.3083 22.6148 17.7622 22.6148 17.1712L22.6131 6.82528Z" fill="var(--fill-0, #F5F5F5)"/>
<path id="Vector_2" d="M2.21203 5.3962C1.7003 5.69175 1.38516 6.23784 1.3852 6.8288L1.38689 17.1747C1.38703 17.7657 1.70231 18.3117 2.21419 18.6071L8.44627 22.2037V1.7955L2.21203 5.3962Z" fill="var(--fill-0, #41479B)"/>
<path id="Vector_3" d="M21.788 18.6038C22.2997 18.3083 22.6149 17.7622 22.6148 17.1712L22.6132 6.82528C22.613 6.23433 22.2977 5.68833 21.7859 5.39292L15.5538 1.79625V22.2045L21.788 18.6038Z" fill="var(--fill-0, #FF4B55)"/>
</g>
<defs>
<clipPath id="clip0_0_172">
<rect width="24" height="24" fill="white"/>
</clipPath>
</defs>
</svg>
