<svg preserveAspectRatio="none" width="100%" height="100%" overflow="visible" style="display: block;" viewBox="0 0 14 14" fill="none" xmlns="http://www.w3.org/2000/svg">
<g id="Group">
<path id="Vector" d="M5.08533 0H1.06588C0.47812 0 0 0.47812 0 1.06588V5.08533C0 5.67309 0.47812 6.15121 1.06588 6.15121H5.08533C5.67309 6.15121 6.15121 5.67309 6.15121 5.08533V1.06588C6.15112 0.47812 5.67309 0 5.08533 0Z" fill="var(--fill-0, #0CA99A)"/>
<path id="Vector_2" d="M12.934 0H8.91456C8.3268 0 7.84868 0.47812 7.84868 1.06588V5.08533C7.84868 5.67309 8.3268 6.15121 8.91456 6.15121H12.934C13.5218 6.15121 13.9999 5.67309 13.9999 5.08533V1.06588C13.9999 0.47812 13.5218 0 12.934 0Z" fill="var(--fill-0, #0CA99A)"/>
<path id="Vector_3" d="M5.08532 7.84879H1.06587C0.478106 7.84879 -1.3468e-05 8.32686 -1.3468e-05 8.91462V12.9341C-1.3468e-05 13.5218 0.478106 14 1.06587 14H5.08532C5.67308 14 6.1512 13.5218 6.1512 12.9341V8.91462C6.1511 8.32686 5.67308 7.84879 5.08532 7.84879Z" fill="var(--fill-0, #0CA99A)"/>
<path id="Vector_4" d="M12.934 7.84879H8.91456C8.3268 7.84879 7.84868 8.32691 7.84868 8.91467V12.9341C7.84868 13.5219 8.3268 14 8.91456 14H12.934C13.5218 14 13.9999 13.5218 13.9999 12.9341V8.91462C13.9999 8.32686 13.5218 7.84879 12.934 7.84879Z" fill="var(--fill-0, #0CA99A)"/>
</g>
</svg>
