<svg width="43" height="47" viewBox="0 0 43 47" fill="none" xmlns="http://www.w3.org/2000/svg">
<path d="M39.7652 42.9372L39.7096 42.97L35.219 45.6157L33.5562 46.5932C32.5441 47.1829 31.2762 47.1256 30.3197 46.4485L21.1994 39.9803L21.1939 39.9748L21.1355 39.9339L14.7402 35.265L19.4199 32.248C20.1873 31.7565 21.1049 31.6009 21.9669 31.7866C22.2116 31.8466 22.4507 31.934 22.6815 32.0487C22.7871 32.0978 22.89 32.1606 22.9901 32.2234L27.3584 35.0029L29.3048 36.2425L30.1055 36.7558C30.1055 36.7558 30.1167 36.7612 30.1222 36.764L32.5497 38.3175L32.6136 38.3585L39.7652 42.9372Z" fill="url(#paint0_linear_1210_711)"/>
<path d="M40.7876 42.342L39.8395 42.8963L39.7644 42.94L39.7088 42.9728L35.2237 45.5966L32.6128 38.3612L32.5989 38.3203L21.1291 6.56919L9.08381 38.7162L14.517 35.2541L19.269 32.2262C20.0837 31.7074 21.0596 31.56 21.9661 31.7866C22.2108 31.8466 22.4499 31.934 22.6807 32.0487C22.7864 32.0978 22.8892 32.1606 22.9893 32.2234L27.3576 35.0029L29.304 36.2425L30.1214 36.764L30.1048 36.7558C29.5598 36.4418 27.4021 35.4671 24.4074 37.6022C23.615 38.1674 22.4527 38.9947 21.1347 39.9339C21.1125 39.9475 21.0902 39.9639 21.068 39.9803C18.0316 42.1427 14.1861 44.8813 12.059 46.3966C11.083 47.0901 9.78451 47.1474 8.74736 46.5468L1.48179 42.3366C0.241663 41.6212 -0.306105 40.1496 0.166589 38.8199L13.3075 1.97949C13.7301 0.794528 14.8757 0 16.1603 0H26.1008C27.3854 0 28.5282 0.794528 28.9536 1.97949L42.0945 38.8254C42.5672 40.1523 42.0222 41.624 40.7876 42.3393V42.342Z" fill="#014076"/>
<defs>
<linearGradient id="paint0_linear_1210_711" x1="29.7997" y1="41.6021" x2="25.7294" y2="37.457" gradientUnits="userSpaceOnUse">
<stop stop-color="#014076"/>
<stop offset="1" stop-color="#001D33"/>
</linearGradient>
</defs>
</svg>
