<svg preserveAspectRatio="none" width="100%" height="100%" overflow="visible" style="display: block;" viewBox="0 0 13 13" fill="none" xmlns="http://www.w3.org/2000/svg">
<g id="Layer 2">
<path id="Vector" d="M10.3542 12.5592H2.18753C1.89901 12.5584 1.61347 12.5007 1.34727 12.3894C1.08107 12.2781 0.839451 12.1154 0.636246 11.9106C0.433041 11.7057 0.272247 11.4628 0.163074 11.1958C0.0539009 10.9287 -0.00150464 10.6427 3.1087e-05 10.3542V3.35417C0.00311453 2.77603 0.234943 2.22262 0.644845 1.81491C1.05475 1.40719 1.60939 1.17833 2.18753 1.17833H10.3542C10.9323 1.17833 11.487 1.40719 11.8969 1.81491C12.3068 2.22262 12.5386 2.77603 12.5417 3.35417V10.3542C12.5432 10.6427 12.4878 10.9287 12.3787 11.1958C12.2695 11.4628 12.1087 11.7057 11.9055 11.9106C11.7023 12.1154 11.4607 12.2781 11.1945 12.3894C10.9283 12.5007 10.6427 12.5584 10.3542 12.5592ZM2.18753 2.05333C1.84145 2.05332 1.50936 2.19 1.26355 2.43362C1.01775 2.67725 0.878107 3.0081 0.875031 3.35417V10.3542C0.872713 10.528 0.90495 10.7005 0.969871 10.8618C1.03479 11.0231 1.1311 11.1698 1.25321 11.2936C1.37532 11.4173 1.52079 11.5156 1.68118 11.5826C1.84157 11.6497 2.01369 11.6842 2.18753 11.6842H10.3542C10.528 11.6842 10.7002 11.6497 10.8605 11.5826C11.0209 11.5156 11.1664 11.4173 11.2885 11.2936C11.4106 11.1698 11.5069 11.0231 11.5719 10.8618C11.6368 10.7005 11.669 10.528 11.6667 10.3542V3.35417C11.6636 3.0081 11.524 2.67725 11.2782 2.43362C11.0324 2.19 10.7003 2.05332 10.3542 2.05333H2.18753Z" fill="var(--fill-0, #B3B3B3)"/>
<path id="Vector_2" d="M10.3542 12.5592H2.18753C1.89901 12.5584 1.61347 12.5007 1.34727 12.3894C1.08107 12.2781 0.839451 12.1154 0.636246 11.9106C0.433041 11.7057 0.272247 11.4628 0.163074 11.1958C0.0539009 10.9287 -0.00150464 10.6427 3.1087e-05 10.3542V4.80083C3.1087e-05 4.6848 0.0461247 4.57352 0.128172 4.49147C0.210219 4.40943 0.321499 4.36333 0.437531 4.36333H12.1042C12.2202 4.36333 12.3315 4.40943 12.4136 4.49147C12.4956 4.57352 12.5417 4.6848 12.5417 4.80083V10.3542C12.5432 10.6427 12.4878 10.9287 12.3787 11.1958C12.2695 11.4628 12.1087 11.7057 11.9055 11.9106C11.7023 12.1154 11.4607 12.2781 11.1945 12.3894C10.9283 12.5007 10.6427 12.5584 10.3542 12.5592ZM0.875031 5.23833V10.3542C0.872713 10.528 0.90495 10.7005 0.969871 10.8618C1.03479 11.0231 1.1311 11.1698 1.25321 11.2936C1.37532 11.4173 1.52079 11.5156 1.68118 11.5826C1.84157 11.6497 2.01369 11.6842 2.18753 11.6842H10.3542C10.528 11.6842 10.7002 11.6497 10.8605 11.5826C11.0209 11.5156 11.1664 11.4173 11.2885 11.2936C11.4106 11.1698 11.5069 11.0231 11.5719 10.8618C11.6368 10.7005 11.669 10.528 11.6667 10.3542V5.22083L0.875031 5.23833Z" fill="var(--fill-0, #B3B3B3)"/>
<path id="Vector_3" d="M3.06253 3.19667C2.94893 3.19526 2.84021 3.1503 2.7588 3.07106C2.67739 2.99182 2.62951 2.88435 2.62503 2.77083V0.4375C2.62503 0.321468 2.67112 0.210188 2.75317 0.128141C2.83522 0.0460936 2.9465 -1.49012e-08 3.06253 -1.49012e-08C3.17856 -1.49012e-08 3.28984 0.0460936 3.37189 0.128141C3.45394 0.210188 3.50003 0.321468 3.50003 0.4375V2.77083C3.49556 2.88435 3.44767 2.99182 3.36626 3.07106C3.28485 3.1503 3.17613 3.19526 3.06253 3.19667Z" fill="var(--fill-0, #B3B3B3)"/>
<path id="Vector_4" d="M6.27051 3.19667C6.15691 3.19526 6.04819 3.1503 5.96678 3.07106C5.88537 2.99182 5.83748 2.88435 5.83301 2.77083V0.4375C5.83301 0.321468 5.8791 0.210188 5.96115 0.128141C6.0432 0.0460936 6.15448 0 6.27051 0C6.38654 0 6.49782 0.0460936 6.57987 0.128141C6.66191 0.210188 6.70801 0.321468 6.70801 0.4375V2.77083C6.70353 2.88435 6.65565 2.99182 6.57424 3.07106C6.49283 3.1503 6.38411 3.19526 6.27051 3.19667Z" fill="var(--fill-0, #B3B3B3)"/>
<path id="Vector_5" d="M9.47949 3.19667C9.36589 3.19526 9.25717 3.1503 9.17576 3.07106C9.09435 2.99182 9.04647 2.88435 9.04199 2.77083V0.4375C9.04199 0.321468 9.08809 0.210188 9.17013 0.128141C9.25218 0.0460936 9.36346 0 9.47949 0C9.59552 0 9.7068 0.0460936 9.78885 0.128141C9.8709 0.210188 9.91699 0.321468 9.91699 0.4375V2.77083C9.91252 2.88435 9.86463 2.99182 9.78322 3.07106C9.70181 3.1503 9.59309 3.19526 9.47949 3.19667Z" fill="var(--fill-0, #B3B3B3)"/>
<path id="Vector_6" d="M3.3542 7.86333C3.75691 7.86333 4.08336 7.53687 4.08336 7.13417C4.08336 6.73146 3.75691 6.405 3.3542 6.405C2.95149 6.405 2.62503 6.73146 2.62503 7.13417C2.62503 7.53687 2.95149 7.86333 3.3542 7.86333Z" fill="var(--fill-0, #B3B3B3)"/>
<path id="Vector_7" d="M6.27116 7.86333C6.67387 7.86333 7.00033 7.53687 7.00033 7.13417C7.00033 6.73146 6.67387 6.405 6.27116 6.405C5.86845 6.405 5.54199 6.73146 5.54199 7.13417C5.54199 7.53687 5.86845 7.86333 6.27116 7.86333Z" fill="var(--fill-0, #B3B3B3)"/>
<path id="Vector_8" d="M9.18717 7.86333C9.58988 7.86333 9.91634 7.53687 9.91634 7.13417C9.91634 6.73146 9.58988 6.405 9.18717 6.405C8.78447 6.405 8.45801 6.73146 8.45801 7.13417C8.45801 7.53687 8.78447 7.86333 9.18717 7.86333Z" fill="var(--fill-0, #B3B3B3)"/>
<path id="Vector_9" d="M3.3542 10.1967C3.75691 10.1967 4.08336 9.87021 4.08336 9.4675C4.08336 9.06479 3.75691 8.73833 3.3542 8.73833C2.95149 8.73833 2.62503 9.06479 2.62503 9.4675C2.62503 9.87021 2.95149 10.1967 3.3542 10.1967Z" fill="var(--fill-0, #B3B3B3)"/>
<path id="Vector_10" d="M6.27116 10.1967C6.67387 10.1967 7.00033 9.87021 7.00033 9.4675C7.00033 9.06479 6.67387 8.73833 6.27116 8.73833C5.86845 8.73833 5.54199 9.06479 5.54199 9.4675C5.54199 9.87021 5.86845 10.1967 6.27116 10.1967Z" fill="var(--fill-0, #B3B3B3)"/>
<path id="Vector_11" d="M9.18717 10.1967C9.58988 10.1967 9.91634 9.87021 9.91634 9.4675C9.91634 9.06479 9.58988 8.73833 9.18717 8.73833C8.78447 8.73833 8.45801 9.06479 8.45801 9.4675C8.45801 9.87021 8.78447 10.1967 9.18717 10.1967Z" fill="var(--fill-0, #B3B3B3)"/>
</g>
</svg>
