<svg preserveAspectRatio="none" width="100%" height="100%" overflow="visible" style="display: block;" viewBox="0 0 12 12" fill="none" xmlns="http://www.w3.org/2000/svg">
<g id="layer1">
<path id="circle2017" d="M5.24886 0C2.35628 0 1.17047e-06 2.35627 1.17047e-06 5.24887C1.17047e-06 8.14145 2.35628 10.5023 5.24886 10.5023C6.48437 10.5023 7.62066 10.0693 8.51872 9.35043L10.7051 11.5356C10.8154 11.6414 10.9628 11.6998 11.1156 11.6982C11.2684 11.6966 11.4146 11.6353 11.5227 11.5273C11.6309 11.4193 11.6924 11.2733 11.6942 11.1204C11.696 10.9676 11.6378 10.8202 11.5322 10.7097L9.34587 8.52332C10.0654 7.62388 10.4989 6.48581 10.4989 5.24887C10.4989 2.35627 8.14145 0 5.24886 0ZM5.24886 1.16668C7.51094 1.16668 9.33106 2.9868 9.33106 5.24887C9.33106 7.51094 7.51094 9.33563 5.24886 9.33563C2.98679 9.33563 1.16667 7.51094 1.16667 5.24887C1.16667 2.9868 2.98679 1.16668 5.24886 1.16668Z" fill="var(--fill-0, #B3B3B3)"/>
</g>
</svg>
