<svg preserveAspectRatio="none" width="100%" height="100%" overflow="visible" style="display: block;" viewBox="0 0 16 16" fill="none" xmlns="http://www.w3.org/2000/svg">
<g id="Layer 22">
<path id="Vector" d="M10.6869 5.88375L8.66756 7.875L10.6869 9.86625C10.7431 9.91887 10.7879 9.98246 10.8186 10.0531C10.8492 10.1237 10.865 10.1999 10.865 10.2769C10.865 10.3539 10.8492 10.43 10.8186 10.5007C10.7879 10.5713 10.7431 10.6349 10.6869 10.6875C10.6344 10.7396 10.572 10.7809 10.5035 10.8089C10.435 10.8369 10.3616 10.8511 10.2876 10.8506C10.14 10.85 9.99858 10.7914 9.89381 10.6875L7.87443 8.66813L5.88318 10.6875C5.77841 10.7914 5.637 10.85 5.48943 10.8506C5.4154 10.8511 5.34202 10.8369 5.27348 10.8089C5.20495 10.7809 5.14262 10.7396 5.09006 10.6875C4.98529 10.5821 4.92649 10.4395 4.92649 10.2909C4.92649 10.1423 4.98529 9.99977 5.09006 9.89438L7.08131 7.875L5.09006 5.88375C4.9979 5.77615 4.94975 5.63773 4.95522 5.49616C4.96069 5.35459 5.01937 5.2203 5.11955 5.12012C5.21973 5.01995 5.35402 4.96126 5.49559 4.95579C5.63716 4.95032 5.77557 4.99848 5.88318 5.09063L7.87443 7.08188L9.86568 5.09063C9.91776 5.0367 9.97995 4.99357 10.0487 4.96368C10.1174 4.93379 10.1914 4.91773 10.2664 4.91642C10.3413 4.91512 10.4158 4.92859 10.4855 4.95607C10.5553 4.98354 10.6189 5.02449 10.6729 5.07657C10.7268 5.12864 10.7699 5.19083 10.7998 5.25958C10.8297 5.32833 10.8458 5.40229 10.8471 5.47725C10.8484 5.5522 10.8349 5.62668 10.8074 5.69643C10.78 5.76618 10.739 5.82983 10.6869 5.88375ZM13.4432 13.4438C12.3418 14.545 10.9386 15.295 9.41104 15.5987C7.88346 15.9025 6.3001 15.7465 4.86118 15.1505C3.42226 14.5544 2.1924 13.5451 1.32712 12.25C0.46184 10.955 0 9.4325 0 7.875C0 6.31751 0.46184 4.79499 1.32712 3.49997C2.1924 2.20495 3.42226 1.19559 4.86118 0.599529C6.3001 0.00346541 7.88346 -0.152533 9.41104 0.151261C10.9386 0.455054 12.3418 1.205 13.4432 2.30625C14.1745 3.03753 14.7547 3.90569 15.1505 4.86119C15.5463 5.81668 15.75 6.84078 15.75 7.875C15.75 8.90923 15.5463 9.93333 15.1505 10.8888C14.7547 11.8443 14.1745 12.7125 13.4432 13.4438ZM12.6501 3.09938C11.7051 2.15772 10.5023 1.51717 9.19362 1.25862C7.88489 1.00007 6.52889 1.13511 5.29685 1.64669C4.06482 2.15827 3.012 3.02344 2.27133 4.13297C1.53067 5.24249 1.13538 6.5466 1.13538 7.88063C1.13538 9.21465 1.53067 10.5188 2.27133 11.6283C3.012 12.7378 4.06482 13.603 5.29685 14.1146C6.52889 14.6261 7.88489 14.7612 9.19362 14.5026C10.5023 14.2441 11.7051 13.6035 12.6501 12.6619C13.2793 12.0348 13.7786 11.2896 14.1193 10.4692C14.46 9.64868 14.6354 8.76902 14.6354 7.88063C14.6354 6.99223 14.46 6.11258 14.1193 5.2921C13.7786 4.47163 13.2793 3.72648 12.6501 3.09938Z" fill="var(--fill-0, #FF7474)"/>
</g>
</svg>
