<svg preserveAspectRatio="none" width="100%" height="100%" overflow="visible" style="display: block;" viewBox="0 0 17 15" fill="none" xmlns="http://www.w3.org/2000/svg">
<g id="Layer 2">
<path id="Vector" d="M4.31302 14.9213C3.45996 14.9215 2.626 14.6688 1.91665 14.1949C1.20731 13.721 0.65447 13.0474 0.328082 12.2593C0.00169426 11.4711 -0.083571 10.6039 0.0830756 9.76724C0.249722 8.93062 0.660791 8.16223 1.26427 7.5593L7.62802 1.1948C7.73354 1.08928 7.87666 1.02999 8.02589 1.02999C8.17512 1.02999 8.31824 1.08928 8.42377 1.1948C8.52929 1.30032 8.58857 1.44344 8.58857 1.59267C8.58857 1.74191 8.52929 1.88503 8.42377 1.99055L2.05927 8.3543C1.75114 8.64752 1.50482 8.99945 1.33482 9.38934C1.16481 9.77923 1.07456 10.1992 1.06938 10.6245C1.0642 11.0498 1.14419 11.4719 1.30465 11.8658C1.46511 12.2597 1.70279 12.6175 2.00368 12.9182C2.30457 13.2188 2.66258 13.4562 3.05664 13.6163C3.45069 13.7765 3.87281 13.8561 4.29812 13.8506C4.72343 13.845 5.14333 13.7544 5.53308 13.5841C5.92283 13.4138 6.27455 13.1672 6.56752 12.8588L14.7875 4.6388C15.1642 4.24982 15.3729 3.72836 15.3685 3.18691C15.3642 2.64546 15.1472 2.12741 14.7643 1.74454C14.3814 1.36166 13.8634 1.14464 13.3219 1.14029C12.7805 1.13594 12.259 1.34462 11.87 1.7213L5.24152 8.3543C5.06568 8.53014 4.96689 8.76863 4.96689 9.0173C4.96689 9.26597 5.06568 9.50446 5.24152 9.6803C5.41736 9.85614 5.65584 9.95492 5.90452 9.95492C6.15319 9.95492 6.39168 9.85614 6.56752 9.6803L10.8088 5.4383C10.8606 5.38455 10.9227 5.34167 10.9913 5.31216C11.0599 5.28265 11.1337 5.26709 11.2084 5.26641C11.2831 5.26573 11.3572 5.27992 11.4263 5.30817C11.4954 5.33642 11.5583 5.37816 11.6111 5.43095C11.6639 5.48374 11.7057 5.54652 11.7341 5.61564C11.7624 5.68476 11.7766 5.75882 11.776 5.83351C11.7754 5.9082 11.7599 5.98201 11.7305 6.05065C11.701 6.1193 11.6582 6.18138 11.6045 6.2333L7.36252 10.476C6.97573 10.8629 6.4511 11.0803 5.90403 11.0804C5.35697 11.0805 4.83228 10.8632 4.44539 10.4764C4.05851 10.0896 3.84112 9.56501 3.84105 9.01794C3.84098 8.47087 4.05823 7.94618 4.44502 7.5593L11.075 0.933799C11.6727 0.335968 12.4835 7.03372e-05 13.3289 1.10452e-08C14.1743 -7.03151e-05 14.9851 0.335692 15.5829 0.933424C16.1807 1.53116 16.5166 2.34189 16.5167 3.18728C16.5168 4.03267 16.181 4.84347 15.5833 5.4413L7.36327 13.6583C6.96357 14.06 6.48819 14.3785 5.96462 14.5953C5.44105 14.812 4.87969 14.9229 4.31302 14.9213Z" fill="var(--fill-0, #0CA99A)"/>
</g>
</svg>
