<svg width="73" height="27" viewBox="0 0 73 27" fill="none" xmlns="http://www.w3.org/2000/svg">
<g clip-path="url(#clip0_1210_491)">
<path d="M22.1591 24.6661L22.1281 24.6849L19.6257 26.2048L18.6991 26.7663C18.1351 27.1051 17.4285 27.0722 16.8955 26.6832L11.8133 22.9674L11.8102 22.9643L11.7776 22.9408L8.21387 20.2586L10.8216 18.5255C11.2493 18.2431 11.7606 18.1537 12.2409 18.2604C12.3773 18.2949 12.5105 18.3451 12.6391 18.411C12.698 18.4392 12.7554 18.4753 12.8111 18.5113L15.2453 20.1081L16.33 20.8202L16.7762 21.115L16.7855 21.1197L18.1382 22.0122L18.1738 22.0357L22.1591 24.6661Z" fill="url(#paint0_linear_1210_491)"/>
<path d="M22.7291 24.3242L22.2007 24.6426L22.1589 24.6677L22.1279 24.6865L19.6286 26.1938L18.1737 22.0373L18.1659 22.0138L11.7744 3.77379L5.06208 22.2412L8.08974 20.2524L10.7378 18.5129C11.1918 18.2149 11.7356 18.1302 12.2408 18.2604C12.3771 18.2949 12.5104 18.3451 12.639 18.4109C12.6979 18.4392 12.7552 18.4753 12.811 18.5113L15.2452 20.1081L16.3298 20.8201L16.7853 21.1197L16.776 21.115C16.4724 20.9346 15.27 20.3747 13.6012 21.6013C13.1596 21.9259 12.5119 22.4012 11.7775 22.9407C11.7651 22.9486 11.7527 22.958 11.7403 22.9674C10.0483 24.2097 7.90535 25.7829 6.72001 26.6534C6.17615 27.0518 5.45255 27.0847 4.8746 26.7396L0.825841 24.321C0.134779 23.9101 -0.170466 23.0647 0.0929436 22.3008L7.41572 1.13716C7.65124 0.456431 8.28962 0 9.00547 0H14.5448C15.2607 0 15.8975 0.456431 16.1346 1.13716L23.4573 22.3039C23.7208 23.0662 23.4171 23.9116 22.7291 24.3226V24.3242Z" fill="white"/>
<path d="M46.253 23.4411H42.5544C42.4351 23.4411 42.3282 23.3674 42.2848 23.2544L40.6377 18.9176H32.7726L31.217 23.2497C31.1751 23.3658 31.0667 23.4426 30.9458 23.4426H27.3557C27.1527 23.4426 27.0133 23.2356 27.0877 23.0443L34.5266 3.71103C34.57 3.59967 34.6769 3.52438 34.7947 3.52438H38.6033C38.721 3.52438 38.8264 3.59653 38.8713 3.7079L46.5195 23.0411C46.5954 23.2325 46.456 23.4411 46.2515 23.4411H46.253ZM39.3641 15.5625L36.6525 8.17182L33.9952 15.5625H39.3641ZM47.6723 23.1493V3.81612C47.6723 3.65457 47.8009 3.52438 47.9605 3.52438H51.1555C51.3151 3.52438 51.4437 3.65457 51.4437 3.81612V23.1493C51.4437 23.3109 51.3151 23.4411 51.1555 23.4411H47.9605C47.8009 23.4411 47.6723 23.3109 47.6723 23.1493ZM54.2235 6.76489V3.81612C54.2235 3.65457 54.3521 3.52438 54.5117 3.52438H57.7067C57.8663 3.52438 57.9949 3.65457 57.9949 3.81612V6.76489C57.9949 6.92644 57.8663 7.05662 57.7067 7.05662H54.5117C54.3521 7.05662 54.2235 6.92644 54.2235 6.76489ZM54.2235 23.1493V9.30427C54.2235 9.14272 54.3521 9.01253 54.5117 9.01253H57.7067C57.8663 9.01253 57.9949 9.14272 57.9949 9.30427V23.1493C57.9949 23.3109 57.8663 23.4411 57.7067 23.4411H54.5117C54.3521 23.4411 54.2235 23.3109 54.2235 23.1493ZM63.3576 13.3714L60.4895 12.8475C60.316 12.8161 60.2137 12.6357 60.2679 12.4648C60.663 11.2335 61.2921 10.3081 62.1583 9.69169C63.0973 9.02194 64.4933 8.68629 66.3465 8.68629C68.0292 8.68629 69.2812 8.89019 70.1039 9.298C70.9267 9.69639 71.5047 10.2077 71.8347 10.8335C72.1756 11.45 72.3445 12.5856 72.3445 14.2434L72.3042 18.6995C72.3042 19.9669 72.3631 20.9048 72.4793 21.5118C72.58 21.9902 72.7458 22.4968 72.9766 23.0317C73.0603 23.2246 72.9209 23.4411 72.7132 23.4411H69.6329C69.5105 23.4411 69.402 23.3658 69.3617 23.2497C69.2781 23.0113 69.1805 22.6992 69.0704 22.3133L68.9449 21.8569C68.2988 22.4953 67.6062 22.9737 66.8702 23.2921C66.1358 23.6089 65.3533 23.7673 64.5212 23.7673C63.0539 23.7673 61.8949 23.3642 61.0458 22.558C60.2044 21.7518 59.7845 20.7323 59.7845 19.501C59.7845 18.6854 59.9766 17.9608 60.3609 17.3271C60.7452 16.684 61.2828 16.1947 61.9723 15.8606C62.6696 15.5155 63.6721 15.2175 64.9783 14.9634C66.5897 14.6575 67.7503 14.3689 68.4553 14.1007C68.5684 14.0584 68.6412 13.9486 68.6412 13.8278V13.6459C68.6412 12.9118 68.4631 12.3911 68.1051 12.0836C67.7472 11.7668 67.0716 11.6084 66.0784 11.6084C65.4075 11.6084 64.8838 11.7448 64.5088 12.0162C64.1757 12.2499 63.8983 12.6436 63.6768 13.1988C63.6256 13.3259 63.4924 13.398 63.3607 13.3729L63.3576 13.3714ZM68.6397 16.5131C68.1563 16.6762 67.3908 16.8707 66.3449 17.0965C65.2975 17.3224 64.6126 17.5451 64.2919 17.7616C63.7992 18.1145 63.5543 18.5631 63.5543 19.1073C63.5543 19.6516 63.7511 20.1033 64.1447 20.4939C64.5383 20.8829 65.0403 21.0789 65.6477 21.0789C66.3279 21.0789 66.9771 20.8531 67.5938 20.3998C68.0493 20.0563 68.3499 19.6344 68.4925 19.1356C68.5901 18.8093 68.6397 18.1882 68.6397 17.2738V16.5131Z" fill="white"/>
</g>
<defs>
<linearGradient id="paint0_linear_1210_491" x1="16.6058" y1="23.8991" x2="14.2673" y2="21.589" gradientUnits="userSpaceOnUse">
<stop stop-color="white"/>
<stop offset="1" stop-color="#C0C0C0"/>
</linearGradient>
<clipPath id="clip0_1210_491">
<rect width="73" height="27" fill="white"/>
</clipPath>
</defs>
</svg>
