<svg preserveAspectRatio="none" width="100%" height="100%" overflow="visible" style="display: block;" viewBox="0 0 221 96" fill="none" xmlns="http://www.w3.org/2000/svg">
<path id="Vector" d="M92.2487 94.4199H74.4651C73.8915 94.4199 73.3774 94.0704 73.1688 93.535L65.2492 72.975H27.4322L19.9522 93.5127C19.751 94.063 19.2295 94.4273 18.6484 94.4273H1.38637C0.410393 94.4273 -0.260119 93.4458 0.0974891 92.5386L35.8658 0.884862C36.0744 0.356919 36.5884 0 37.1546 0H55.4672C56.0334 0 56.54 0.342047 56.756 0.86999L93.5301 92.5238C93.8952 93.4309 93.2246 94.4199 92.2412 94.4199H92.2487ZM59.1252 57.0698L46.0874 22.0323L33.3104 57.0698H59.1252ZM99.073 93.0368V1.38306C99.073 0.617173 99.6914 0 100.459 0H115.821C116.588 0 117.207 0.617173 117.207 1.38306V93.0368C117.207 93.8027 116.588 94.4199 115.821 94.4199H100.459C99.6914 94.4199 99.073 93.8027 99.073 93.0368ZM130.572 15.3624V1.38306C130.572 0.617173 131.191 0 131.958 0H147.32C148.088 0 148.706 0.617173 148.706 1.38306V15.3624C148.706 16.1283 148.088 16.7454 147.32 16.7454H131.958C131.191 16.7454 130.572 16.1283 130.572 15.3624ZM130.572 93.0368V27.401C130.572 26.6351 131.191 26.0179 131.958 26.0179H147.32C148.088 26.0179 148.706 26.6351 148.706 27.401V93.0368C148.706 93.8027 148.088 94.4199 147.32 94.4199H131.958C131.191 94.4199 130.572 93.8027 130.572 93.0368ZM174.491 46.682L160.701 44.1984C159.866 44.0497 159.375 43.1946 159.635 42.3841C161.535 36.547 164.56 32.1599 168.725 29.2376C173.24 26.0625 179.952 24.4712 188.863 24.4712C196.953 24.4712 202.973 25.4379 206.929 27.3712C210.885 29.2599 213.664 31.684 215.251 34.6509C216.89 37.5731 217.702 42.9567 217.702 50.8163L217.508 71.9414C217.508 77.9496 217.792 82.3962 218.35 85.2738C218.835 87.5418 219.632 89.9435 220.742 92.4791C221.144 93.3937 220.474 94.4199 219.475 94.4199H204.664C204.076 94.4199 203.554 94.063 203.361 93.5127C202.958 92.3825 202.489 90.9028 201.96 89.0735L201.356 86.9097C198.25 89.9361 194.92 92.204 191.381 93.7135C187.849 95.2155 184.087 95.9665 180.086 95.9665C173.031 95.9665 167.458 94.0555 163.375 90.2335C159.33 86.4115 157.311 81.5783 157.311 75.7411C157.311 71.8745 158.235 68.4392 160.082 65.4351C161.93 62.3864 164.515 60.0665 167.831 58.4826C171.183 56.8468 176.004 55.434 182.284 54.2293C190.032 52.7794 195.612 51.4112 199.002 50.1397C199.546 49.9389 199.896 49.4184 199.896 48.8458V47.9833C199.896 44.5033 199.039 42.0346 197.318 40.5772C195.597 39.0752 192.349 38.3242 187.574 38.3242C184.348 38.3242 181.83 38.9711 180.027 40.2575C178.425 41.3654 177.091 43.2318 176.026 45.8641C175.78 46.4664 175.139 46.8084 174.506 46.6894L174.491 46.682ZM199.889 61.5759C197.564 62.3492 193.884 63.2713 188.855 64.342C183.819 65.4128 180.526 66.4687 178.984 67.4948C176.614 69.1679 175.437 71.2945 175.437 73.8748C175.437 76.455 176.383 78.5965 178.276 80.448C180.168 82.2921 182.582 83.2216 185.502 83.2216C188.773 83.2216 191.895 82.1508 194.86 80.0019C197.05 78.3734 198.496 76.3732 199.181 74.0086C199.65 72.4619 199.889 69.5174 199.889 65.1823V61.5759Z" fill="var(--fill-0, white)"/>
</svg>
