<svg preserveAspectRatio="none" width="100%" height="100%" overflow="visible" style="display: block;" viewBox="0 0 23 16" fill="none" xmlns="http://www.w3.org/2000/svg">
<path id="Vector" fill-rule="evenodd" clip-rule="evenodd" d="M20.699 8.03906C19.7294 9.78183 18.3225 11.1941 16.661 12.1691L14.6318 10.1406C15.141 9.43177 15.4394 8.56322 15.4394 7.62628C15.4394 5.24213 13.5001 3.30206 11.1159 3.30206C10.1772 3.30206 9.31045 3.60197 8.60058 4.11019L6.90825 2.41706C8.21991 1.87055 9.64734 1.5758 11.1159 1.5758C15.0896 1.5758 18.7623 3.73598 20.699 7.21373C20.8507 7.48355 20.8507 7.76902 20.699 8.03906ZM22.2292 7.67611V7.57659C22.221 7.21734 22.1242 6.85903 21.9386 6.5242C19.7499 2.59763 15.6039 0.158672 11.1159 0.158672C9.25898 0.158672 7.46123 0.576375 5.83575 1.34358L4.69894 0.207562C4.42116 -0.0691875 3.97364 -0.0691875 3.69586 0.207562C3.42066 0.484312 3.42066 0.932859 3.69586 1.20956L4.53947 2.05266C2.80083 3.14316 1.32712 4.6673 0.293203 6.5242C-0.0977344 7.2248 -0.0977344 8.028 0.293203 8.72808C2.47936 12.6547 6.62531 15.0941 11.1159 15.0941C12.9729 15.0941 14.7706 14.6762 16.3961 13.9087L17.5329 15.0455C17.6693 15.1837 17.8518 15.2526 18.0319 15.2526C18.2145 15.2526 18.3945 15.1837 18.5334 15.0455C18.8112 14.7685 18.8112 14.3202 18.5334 14.0432L17.6924 13.2001C19.431 12.1094 20.9047 10.585 21.9386 8.72803C22.1242 8.39348 22.221 8.03536 22.2292 7.67611ZM12.6076 10.1203L8.62116 6.13434C8.3588 6.5708 8.20706 7.08131 8.20706 7.62633C8.20706 9.22941 9.51103 10.5334 11.1159 10.5334C11.6611 10.5333 12.1704 10.3824 12.6076 10.1203ZM13.6081 9.11827C13.8705 8.68209 14.0222 8.17153 14.0222 7.62628C14.0222 6.0232 12.7182 4.71923 11.1159 4.71923C10.5706 4.71923 10.0588 4.86994 9.62419 5.1323L13.6081 9.11827ZM11.1159 13.6773C12.5819 13.6773 14.0093 13.3823 15.3236 12.8355L13.6287 11.1427C12.9214 11.6512 12.0521 11.9503 11.1159 11.9503C8.73169 11.9503 6.78989 10.011 6.78989 7.62633C6.78989 6.68963 7.09078 5.82136 7.60003 5.11228L5.57077 3.08353C3.9067 4.05858 2.50242 5.47055 1.53023 7.21383C1.38108 7.48364 1.38108 7.76911 1.53023 8.03916C3.46697 11.5169 7.13967 13.6773 11.1159 13.6773Z" fill="var(--fill-0, #091E43)"/>
</svg>
