<svg width="83" height="36" viewBox="0 0 83 36" fill="none" xmlns="http://www.w3.org/2000/svg">
<path d="M34.429 34.6698H27.7918C27.5777 34.6698 27.3859 34.5415 27.308 34.3449L24.3523 26.7955H10.2382L7.44655 34.3367C7.37147 34.5387 7.17683 34.6725 6.95995 34.6725H0.517419C0.153167 34.6725 -0.0970815 34.3121 0.0363848 33.979L13.3858 0.32491C13.4637 0.131056 13.6555 0 13.8668 0H20.7014C20.9127 0 21.1018 0.125595 21.1825 0.319449L34.9072 33.9736C35.0435 34.3067 34.7932 34.6698 34.4262 34.6698H34.429ZM22.0667 20.9553L17.2007 8.08998L12.4321 20.9553H22.0667ZM36.976 34.162V0.507843C36.976 0.226618 37.2068 0 37.4932 0H43.2267C43.513 0 43.7438 0.226618 43.7438 0.507843V34.162C43.7438 34.4432 43.513 34.6698 43.2267 34.6698H37.4932C37.2068 34.6698 36.976 34.4432 36.976 34.162ZM48.7321 5.64087V0.507843C48.7321 0.226618 48.9629 0 49.2493 0H54.9828C55.2692 0 55.5 0.226618 55.5 0.507843V5.64087C55.5 5.9221 55.2692 6.14872 54.9828 6.14872H49.2493C48.9629 6.14872 48.7321 5.9221 48.7321 5.64087ZM48.7321 34.162V10.0613C48.7321 9.78006 48.9629 9.55344 49.2493 9.55344H54.9828C55.2692 9.55344 55.5 9.78006 55.5 10.0613V34.162C55.5 34.4432 55.2692 34.6698 54.9828 34.6698H49.2493C48.9629 34.6698 48.7321 34.4432 48.7321 34.162ZM65.1235 17.141L59.9767 16.2291C59.6653 16.1745 59.4817 15.8605 59.5791 15.5629C60.2881 13.4196 61.417 11.8087 62.9713 10.7357C64.6563 9.56983 67.1616 8.98554 70.4872 8.98554C73.5068 8.98554 75.7535 9.34048 77.23 10.0504C78.7065 10.7439 79.7436 11.634 80.3359 12.7234C80.9476 13.7964 81.2507 15.7731 81.2507 18.6591L81.1784 26.416C81.1784 28.6221 81.284 30.2549 81.4926 31.3115C81.6733 32.1442 81.9708 33.0261 82.3851 33.9572C82.5353 34.293 82.285 34.6698 81.9124 34.6698H76.3847C76.165 34.6698 75.9704 34.5387 75.8981 34.3367C75.7479 33.9217 75.5728 33.3784 75.3754 32.7067L75.1501 31.9122C73.9906 33.0234 72.7477 33.8562 71.427 34.4104C70.109 34.962 68.7048 35.2377 67.2117 35.2377C64.5785 35.2377 62.4986 34.536 60.9749 33.1326C59.4651 31.7292 58.7115 29.9545 58.7115 27.8112C58.7115 26.3914 59.0563 25.13 59.7459 24.027C60.4355 22.9075 61.4003 22.0557 62.6377 21.4741C63.8889 20.8734 65.6879 20.3547 68.0319 19.9123C70.9237 19.3799 73.0063 18.8775 74.2715 18.4107C74.4745 18.3369 74.6051 18.1458 74.6051 17.9356V17.6189C74.6051 16.3411 74.2854 15.4346 73.6431 14.8994C73.0008 14.3479 71.7884 14.0722 70.0061 14.0722C68.8021 14.0722 67.8623 14.3097 67.1894 14.782C66.5916 15.1889 66.0939 15.8742 65.6963 16.8407C65.6045 17.0619 65.3654 17.1875 65.129 17.1438L65.1235 17.141ZM74.6024 22.6099C73.7348 22.8939 72.3612 23.2324 70.4844 23.6256C68.6047 24.0188 67.3757 24.4065 66.8001 24.7833C65.9159 25.3976 65.4766 26.1785 65.4766 27.1259C65.4766 28.0733 65.8297 28.8597 66.536 29.5395C67.2423 30.2166 68.1432 30.5579 69.2331 30.5579C70.4538 30.5579 71.6188 30.1647 72.7255 29.3757C73.543 28.7777 74.0824 28.0433 74.3382 27.175C74.5134 26.6071 74.6024 25.5259 74.6024 23.9341V22.6099Z" fill="#014076"/>
</svg>
