<svg preserveAspectRatio="none" width="100%" height="100%" overflow="visible" style="display: block;" viewBox="0 0 114 128" fill="none" xmlns="http://www.w3.org/2000/svg">
<path id="Vector" d="M109.291 115.315L106.751 116.824L106.549 116.943L106.4 117.032L94.3834 124.178L87.3877 104.473L87.3504 104.362L56.6184 17.8906L24.3443 105.44L38.9019 96.0112L51.6343 87.7648C53.8172 86.352 56.4322 85.9505 58.8609 86.5677C59.5166 86.7313 60.1573 86.9692 60.7756 87.2815C61.0587 87.4154 61.3344 87.5864 61.6026 87.7574L73.3068 95.3271L78.5219 98.7029L80.7123 100.123L80.6676 100.101C79.2074 99.2457 73.426 96.5911 65.4022 102.406C63.2789 103.945 60.1647 106.198 56.6333 108.756C56.5737 108.793 56.5141 108.838 56.4545 108.883C48.3189 114.772 38.0154 122.23 32.316 126.357C29.701 128.245 26.2217 128.402 23.4428 126.766L3.97552 115.3C0.652743 113.351 -0.814941 109.344 0.451589 105.722L35.6611 5.39096C36.7935 2.16382 39.863 0 43.305 0H69.9394C73.3813 0 76.4433 2.16382 77.5832 5.39096L112.793 105.737C114.059 109.351 112.599 113.359 109.291 115.307V115.315Z" fill="var(--fill-0, white)"/>
</svg>
