<svg preserveAspectRatio="none" width="100%" height="100%" overflow="visible" style="display: block;" viewBox="0 0 68 42" fill="none" xmlns="http://www.w3.org/2000/svg">
<path id="Vector" d="M67.0516 30.5744L66.9026 30.6637L54.8705 37.869L50.4153 40.531C47.7035 42.1371 44.3062 41.981 41.7433 40.1369L17.3068 22.5215L17.2919 22.5066L17.1354 22.395L0 9.67982L12.5386 1.46325C14.5949 0.124807 17.0534 -0.299036 19.363 0.206599C20.0186 0.370187 20.6593 0.608132 21.2777 0.920436C21.5608 1.05428 21.8365 1.2253 22.1047 1.39633L33.8089 8.96598L39.024 12.3418L41.1697 13.7398L41.2144 13.7621L47.7184 17.9931L47.8897 18.1046L67.0516 30.5744Z" fill="url(#paint0_linear_0_51)"/>
<defs>
<linearGradient id="paint0_linear_0_51" x1="40.3501" y1="26.9383" x2="29.2634" y2="15.8301" gradientUnits="userSpaceOnUse">
<stop stop-color="white"/>
<stop offset="1" stop-color="#C0C0C0"/>
</linearGradient>
</defs>
</svg>
